<mxfile host="app.diagrams.net" modified="2024-07-14T16:38:41.613Z" agent="Mozilla/5.0 (Windows NT 10.0; Win64; x64) AppleWebKit/537.36 (KHTML, like Gecko) Chrome/126.0.0.0 Safari/537.36 Edg/126.0.0.0" etag="BY3ye8ZhG7LpmdTJR-9o" version="24.6.5" type="google">
  <diagram name="PÃ¡gina-1" id="zPAWllsk-OYH7CA9sRbG">
    <mxGraphModel grid="0" page="0" gridSize="10" guides="1" tooltips="1" connect="1" arrows="1" fold="1" pageScale="1" pageWidth="827" pageHeight="1169" math="0" shadow="0">
      <root>
        <mxCell id="0" />
        <mxCell id="1" parent="0" />
        <mxCell id="zNAMggwcWa4zuc7megW7-1272" value="Aluno" style="swimlane;fontStyle=1;align=center;verticalAlign=top;childLayout=stackLayout;horizontal=1;startSize=26;horizontalStack=0;resizeParent=1;resizeParentMax=0;resizeLast=0;collapsible=1;marginBottom=0;whiteSpace=wrap;html=1;" vertex="1" parent="1">
          <mxGeometry x="-796" y="-515" width="194" height="210" as="geometry">
            <mxRectangle x="-786" y="-522" width="66" height="26" as="alternateBounds" />
          </mxGeometry>
        </mxCell>
        <mxCell id="zNAMggwcWa4zuc7megW7-1273" value="&lt;div&gt;+ nome: string&lt;/div&gt;" style="text;strokeColor=none;fillColor=none;align=left;verticalAlign=top;spacingLeft=4;spacingRight=4;overflow=hidden;rotatable=0;points=[[0,0.5],[1,0.5]];portConstraint=eastwest;whiteSpace=wrap;html=1;" vertex="1" parent="zNAMggwcWa4zuc7megW7-1272">
          <mxGeometry y="26" width="194" height="23" as="geometry" />
        </mxCell>
        <mxCell id="E6nLzQcmiTUkTVW1TXlh-31" value="&lt;div&gt;+ matricula: string&lt;/div&gt;&lt;div&gt;&lt;br&gt;&lt;/div&gt;&lt;div&gt;&lt;br&gt;&lt;/div&gt;&lt;div&gt;&lt;br&gt;&lt;/div&gt;&lt;div&gt;&lt;br&gt;&lt;/div&gt;&lt;div&gt;&lt;br&gt;&lt;/div&gt;" style="text;strokeColor=none;fillColor=none;align=left;verticalAlign=top;spacingLeft=4;spacingRight=4;overflow=hidden;rotatable=0;points=[[0,0.5],[1,0.5]];portConstraint=eastwest;whiteSpace=wrap;html=1;" vertex="1" parent="zNAMggwcWa4zuc7megW7-1272">
          <mxGeometry y="49" width="194" height="23" as="geometry" />
        </mxCell>
        <mxCell id="E6nLzQcmiTUkTVW1TXlh-32" value="&lt;div&gt;+ email: string&lt;/div&gt;&lt;div&gt;&lt;br&gt;&lt;/div&gt;&lt;div&gt;&lt;br&gt;&lt;/div&gt;&lt;div&gt;&lt;br&gt;&lt;/div&gt;&lt;div&gt;&lt;br&gt;&lt;/div&gt;&lt;div&gt;&lt;br&gt;&lt;/div&gt;" style="text;strokeColor=none;fillColor=none;align=left;verticalAlign=top;spacingLeft=4;spacingRight=4;overflow=hidden;rotatable=0;points=[[0,0.5],[1,0.5]];portConstraint=eastwest;whiteSpace=wrap;html=1;" vertex="1" parent="zNAMggwcWa4zuc7megW7-1272">
          <mxGeometry y="72" width="194" height="21" as="geometry" />
        </mxCell>
        <mxCell id="9x2089Uv81hmqCVrcCbn-22" value="&lt;div&gt;+ curso: string&lt;/div&gt;" style="text;strokeColor=none;fillColor=none;align=left;verticalAlign=top;spacingLeft=4;spacingRight=4;overflow=hidden;rotatable=0;points=[[0,0.5],[1,0.5]];portConstraint=eastwest;whiteSpace=wrap;html=1;" vertex="1" parent="zNAMggwcWa4zuc7megW7-1272">
          <mxGeometry y="93" width="194" height="30" as="geometry" />
        </mxCell>
        <mxCell id="zNAMggwcWa4zuc7megW7-1274" value="" style="line;strokeWidth=1;fillColor=none;align=left;verticalAlign=middle;spacingTop=-1;spacingLeft=3;spacingRight=3;rotatable=0;labelPosition=right;points=[];portConstraint=eastwest;strokeColor=inherit;" vertex="1" parent="zNAMggwcWa4zuc7megW7-1272">
          <mxGeometry y="123" width="194" height="8" as="geometry" />
        </mxCell>
        <mxCell id="E6nLzQcmiTUkTVW1TXlh-18" value="+ acessarConteudo(Conteudo): boleano&lt;div&gt;&lt;br&gt;&lt;/div&gt;&lt;div&gt;&lt;br&gt;&lt;/div&gt;&lt;div&gt;&lt;br&gt;&lt;/div&gt;" style="text;strokeColor=none;fillColor=none;align=left;verticalAlign=top;spacingLeft=4;spacingRight=4;overflow=hidden;rotatable=0;points=[[0,0.5],[1,0.5]];portConstraint=eastwest;whiteSpace=wrap;html=1;" vertex="1" parent="zNAMggwcWa4zuc7megW7-1272">
          <mxGeometry y="131" width="194" height="39" as="geometry" />
        </mxCell>
        <mxCell id="E6nLzQcmiTUkTVW1TXlh-42" value="&lt;span style=&quot;color: rgb(0, 0, 0); font-family: Helvetica; font-size: 12px; font-style: normal; font-variant-ligatures: normal; font-variant-caps: normal; font-weight: 400; letter-spacing: normal; orphans: 2; text-align: left; text-indent: 0px; text-transform: none; widows: 2; word-spacing: 0px; -webkit-text-stroke-width: 0px; white-space: normal; background-color: rgb(255, 255, 255); text-decoration-thickness: initial; text-decoration-style: initial; text-decoration-color: initial; display: inline !important; float: none;&quot;&gt;+ comentar(Conteudo): string&lt;/span&gt;" style="text;whiteSpace=wrap;html=1;" vertex="1" parent="zNAMggwcWa4zuc7megW7-1272">
          <mxGeometry y="170" width="194" height="40" as="geometry" />
        </mxCell>
        <mxCell id="9x2089Uv81hmqCVrcCbn-1" value="Professor" style="swimlane;fontStyle=1;align=center;verticalAlign=top;childLayout=stackLayout;horizontal=1;startSize=26;horizontalStack=0;resizeParent=1;resizeParentMax=0;resizeLast=0;collapsible=1;marginBottom=0;whiteSpace=wrap;html=1;" vertex="1" parent="1">
          <mxGeometry x="-541" y="-524" width="260" height="292" as="geometry" />
        </mxCell>
        <mxCell id="9x2089Uv81hmqCVrcCbn-2" value="+ numeroFuncionario(): int" style="text;strokeColor=none;fillColor=none;align=left;verticalAlign=top;spacingLeft=4;spacingRight=4;overflow=hidden;rotatable=0;points=[[0,0.5],[1,0.5]];portConstraint=eastwest;whiteSpace=wrap;html=1;" vertex="1" parent="9x2089Uv81hmqCVrcCbn-1">
          <mxGeometry y="26" width="260" height="28" as="geometry" />
        </mxCell>
        <mxCell id="E6nLzQcmiTUkTVW1TXlh-36" value="&lt;span style=&quot;color: rgb(0, 0, 0); font-family: Helvetica; font-size: 12px; font-style: normal; font-variant-ligatures: normal; font-variant-caps: normal; font-weight: 400; letter-spacing: normal; orphans: 2; text-align: left; text-indent: 0px; text-transform: none; widows: 2; word-spacing: 0px; -webkit-text-stroke-width: 0px; white-space: normal; background-color: rgb(255, 255, 255); text-decoration-thickness: initial; text-decoration-style: initial; text-decoration-color: initial; display: inline !important; float: none;&quot;&gt;+ nome: string&lt;/span&gt;&lt;div&gt;&lt;br&gt;&lt;/div&gt;" style="text;whiteSpace=wrap;html=1;" vertex="1" parent="9x2089Uv81hmqCVrcCbn-1">
          <mxGeometry y="54" width="260" height="30" as="geometry" />
        </mxCell>
        <mxCell id="E6nLzQcmiTUkTVW1TXlh-37" value="&lt;span style=&quot;color: rgb(0, 0, 0); font-family: Helvetica; font-size: 12px; font-style: normal; font-variant-ligatures: normal; font-variant-caps: normal; font-weight: 400; letter-spacing: normal; orphans: 2; text-align: left; text-indent: 0px; text-transform: none; widows: 2; word-spacing: 0px; -webkit-text-stroke-width: 0px; white-space: normal; background-color: rgb(255, 255, 255); text-decoration-thickness: initial; text-decoration-style: initial; text-decoration-color: initial; display: inline !important; float: none;&quot;&gt;+ email: string&lt;/span&gt;&lt;div&gt;&lt;br&gt;&lt;/div&gt;" style="text;whiteSpace=wrap;html=1;" vertex="1" parent="9x2089Uv81hmqCVrcCbn-1">
          <mxGeometry y="84" width="260" height="30" as="geometry" />
        </mxCell>
        <mxCell id="E6nLzQcmiTUkTVW1TXlh-45" value="&lt;div&gt;+ disciplina: string&lt;/div&gt;" style="text;strokeColor=none;fillColor=none;align=left;verticalAlign=top;spacingLeft=4;spacingRight=4;overflow=hidden;rotatable=0;points=[[0,0.5],[1,0.5]];portConstraint=eastwest;whiteSpace=wrap;html=1;" vertex="1" parent="9x2089Uv81hmqCVrcCbn-1">
          <mxGeometry y="114" width="260" height="30" as="geometry" />
        </mxCell>
        <mxCell id="9x2089Uv81hmqCVrcCbn-3" value="" style="line;strokeWidth=1;fillColor=none;align=left;verticalAlign=middle;spacingTop=-1;spacingLeft=3;spacingRight=3;rotatable=0;labelPosition=right;points=[];portConstraint=eastwest;strokeColor=inherit;" vertex="1" parent="9x2089Uv81hmqCVrcCbn-1">
          <mxGeometry y="144" width="260" height="8" as="geometry" />
        </mxCell>
        <mxCell id="9x2089Uv81hmqCVrcCbn-4" value="- criarConteudo(Conteudo) : booleano" style="text;strokeColor=none;fillColor=none;align=left;verticalAlign=top;spacingLeft=4;spacingRight=4;overflow=hidden;rotatable=0;points=[[0,0.5],[1,0.5]];portConstraint=eastwest;whiteSpace=wrap;html=1;" vertex="1" parent="9x2089Uv81hmqCVrcCbn-1">
          <mxGeometry y="152" width="260" height="30" as="geometry" />
        </mxCell>
        <mxCell id="E6nLzQcmiTUkTVW1TXlh-35" style="edgeStyle=orthogonalEdgeStyle;rounded=0;orthogonalLoop=1;jettySize=auto;html=1;exitX=0.5;exitY=1;exitDx=0;exitDy=0;" edge="1" parent="9x2089Uv81hmqCVrcCbn-1">
          <mxGeometry relative="1" as="geometry">
            <mxPoint x="80" y="174" as="sourcePoint" />
            <mxPoint x="80" y="174" as="targetPoint" />
          </mxGeometry>
        </mxCell>
        <mxCell id="E6nLzQcmiTUkTVW1TXlh-47" value="- editarConteudo(Conteudo) :&amp;nbsp; booleano" style="text;strokeColor=none;fillColor=none;align=left;verticalAlign=top;spacingLeft=4;spacingRight=4;overflow=hidden;rotatable=0;points=[[0,0.5],[1,0.5]];portConstraint=eastwest;whiteSpace=wrap;html=1;" vertex="1" parent="9x2089Uv81hmqCVrcCbn-1">
          <mxGeometry y="182" width="260" height="33" as="geometry" />
        </mxCell>
        <mxCell id="E6nLzQcmiTUkTVW1TXlh-46" value="&lt;div&gt;- adicionarConteudo(Conteudo) : booleano&lt;/div&gt;&lt;div&gt;&lt;br&gt;&lt;/div&gt;" style="text;strokeColor=none;fillColor=none;align=left;verticalAlign=top;spacingLeft=4;spacingRight=4;overflow=hidden;rotatable=0;points=[[0,0.5],[1,0.5]];portConstraint=eastwest;whiteSpace=wrap;html=1;" vertex="1" parent="9x2089Uv81hmqCVrcCbn-1">
          <mxGeometry y="215" width="260" height="34" as="geometry" />
        </mxCell>
        <mxCell id="E6nLzQcmiTUkTVW1TXlh-48" value="+ fazerComentario(Comentario) : booleano" style="text;strokeColor=none;fillColor=none;align=left;verticalAlign=top;spacingLeft=4;spacingRight=4;overflow=hidden;rotatable=0;points=[[0,0.5],[1,0.5]];portConstraint=eastwest;whiteSpace=wrap;html=1;" vertex="1" parent="9x2089Uv81hmqCVrcCbn-1">
          <mxGeometry y="249" width="260" height="43" as="geometry" />
        </mxCell>
        <mxCell id="9x2089Uv81hmqCVrcCbn-21" value="Coordenador" style="swimlane;fontStyle=1;align=center;verticalAlign=top;childLayout=stackLayout;horizontal=1;startSize=26;horizontalStack=0;resizeParent=1;resizeParentMax=0;resizeLast=0;collapsible=1;marginBottom=0;whiteSpace=wrap;html=1;" vertex="1" parent="1">
          <mxGeometry x="-220" y="-503" width="254" height="77" as="geometry" />
        </mxCell>
        <mxCell id="9x2089Uv81hmqCVrcCbn-23" value="" style="line;strokeWidth=1;fillColor=none;align=left;verticalAlign=middle;spacingTop=-1;spacingLeft=3;spacingRight=3;rotatable=0;labelPosition=right;points=[];portConstraint=eastwest;strokeColor=inherit;" vertex="1" parent="9x2089Uv81hmqCVrcCbn-21">
          <mxGeometry y="26" width="254" height="15" as="geometry" />
        </mxCell>
        <mxCell id="E6nLzQcmiTUkTVW1TXlh-39" value="&lt;span style=&quot;color: rgb(0, 0, 0); font-family: Helvetica; font-size: 12px; font-style: normal; font-variant-ligatures: normal; font-variant-caps: normal; font-weight: 400; letter-spacing: normal; orphans: 2; text-align: left; text-indent: 0px; text-transform: none; widows: 2; word-spacing: 0px; -webkit-text-stroke-width: 0px; white-space: normal; background-color: rgb(255, 255, 255); text-decoration-thickness: initial; text-decoration-style: initial; text-decoration-color: initial; display: inline !important; float: none;&quot;&gt;- gerenciaProfessor (Professor): string&lt;/span&gt;&lt;div&gt;&lt;span style=&quot;color: rgb(0, 0, 0); font-family: Helvetica; font-size: 12px; font-style: normal; font-variant-ligatures: normal; font-variant-caps: normal; font-weight: 400; letter-spacing: normal; orphans: 2; text-align: left; text-indent: 0px; text-transform: none; widows: 2; word-spacing: 0px; -webkit-text-stroke-width: 0px; white-space: normal; background-color: rgb(255, 255, 255); text-decoration-thickness: initial; text-decoration-style: initial; text-decoration-color: initial; display: inline !important; float: none;&quot;&gt;&lt;br&gt;&lt;/span&gt;&lt;/div&gt;&lt;div&gt;&lt;br&gt;&lt;/div&gt;" style="text;whiteSpace=wrap;html=1;" vertex="1" parent="9x2089Uv81hmqCVrcCbn-21">
          <mxGeometry y="41" width="254" height="36" as="geometry" />
        </mxCell>
        <mxCell id="9x2089Uv81hmqCVrcCbn-25" value="Conteudo" style="swimlane;fontStyle=1;align=center;verticalAlign=top;childLayout=stackLayout;horizontal=1;startSize=26;horizontalStack=0;resizeParent=1;resizeParentMax=0;resizeLast=0;collapsible=1;marginBottom=0;whiteSpace=wrap;html=1;" vertex="1" parent="1">
          <mxGeometry x="-726" y="-185" width="160" height="120" as="geometry" />
        </mxCell>
        <mxCell id="9x2089Uv81hmqCVrcCbn-26" value="+ titulo: string&lt;div&gt;&lt;br&gt;&lt;/div&gt;&lt;div&gt;&lt;br&gt;&lt;/div&gt;" style="text;strokeColor=none;fillColor=none;align=left;verticalAlign=top;spacingLeft=4;spacingRight=4;overflow=hidden;rotatable=0;points=[[0,0.5],[1,0.5]];portConstraint=eastwest;whiteSpace=wrap;html=1;" vertex="1" parent="9x2089Uv81hmqCVrcCbn-25">
          <mxGeometry y="26" width="160" height="26" as="geometry" />
        </mxCell>
        <mxCell id="E6nLzQcmiTUkTVW1TXlh-53" value="&lt;div&gt;+ descricao: string&lt;/div&gt;&lt;div&gt;&lt;br&gt;&lt;/div&gt;" style="text;strokeColor=none;fillColor=none;align=left;verticalAlign=top;spacingLeft=4;spacingRight=4;overflow=hidden;rotatable=0;points=[[0,0.5],[1,0.5]];portConstraint=eastwest;whiteSpace=wrap;html=1;" vertex="1" parent="9x2089Uv81hmqCVrcCbn-25">
          <mxGeometry y="52" width="160" height="30" as="geometry" />
        </mxCell>
        <mxCell id="E6nLzQcmiTUkTVW1TXlh-52" value="+ link: string" style="text;strokeColor=none;fillColor=none;align=left;verticalAlign=top;spacingLeft=4;spacingRight=4;overflow=hidden;rotatable=0;points=[[0,0.5],[1,0.5]];portConstraint=eastwest;whiteSpace=wrap;html=1;" vertex="1" parent="9x2089Uv81hmqCVrcCbn-25">
          <mxGeometry y="82" width="160" height="30" as="geometry" />
        </mxCell>
        <mxCell id="9x2089Uv81hmqCVrcCbn-27" value="" style="line;strokeWidth=1;fillColor=none;align=left;verticalAlign=middle;spacingTop=-1;spacingLeft=3;spacingRight=3;rotatable=0;labelPosition=right;points=[];portConstraint=eastwest;strokeColor=inherit;" vertex="1" parent="9x2089Uv81hmqCVrcCbn-25">
          <mxGeometry y="112" width="160" height="8" as="geometry" />
        </mxCell>
        <mxCell id="E6nLzQcmiTUkTVW1TXlh-40" value="" style="endArrow=block;endSize=16;endFill=0;html=1;rounded=0;entryX=1;entryY=0.25;entryDx=0;entryDy=0;" edge="1" parent="1" target="E6nLzQcmiTUkTVW1TXlh-36">
          <mxGeometry width="160" relative="1" as="geometry">
            <mxPoint x="-220" y="-462.6622340425531" as="sourcePoint" />
            <mxPoint x="-348" y="-179" as="targetPoint" />
          </mxGeometry>
        </mxCell>
        <mxCell id="E6nLzQcmiTUkTVW1TXlh-41" style="edgeStyle=orthogonalEdgeStyle;rounded=0;orthogonalLoop=1;jettySize=auto;html=1;entryX=0;entryY=0.25;entryDx=0;entryDy=0;" edge="1" parent="1" source="E6nLzQcmiTUkTVW1TXlh-32" target="E6nLzQcmiTUkTVW1TXlh-37">
          <mxGeometry relative="1" as="geometry" />
        </mxCell>
        <mxCell id="E6nLzQcmiTUkTVW1TXlh-50" style="edgeStyle=orthogonalEdgeStyle;rounded=0;orthogonalLoop=1;jettySize=auto;html=1;entryX=0.106;entryY=-0.041;entryDx=0;entryDy=0;entryPerimeter=0;" edge="1" parent="1" source="E6nLzQcmiTUkTVW1TXlh-32" target="9x2089Uv81hmqCVrcCbn-25">
          <mxGeometry relative="1" as="geometry">
            <Array as="points">
              <mxPoint x="-841" y="-432" />
              <mxPoint x="-841" y="-255" />
              <mxPoint x="-709" y="-255" />
            </Array>
          </mxGeometry>
        </mxCell>
        <mxCell id="zanm-5azrlLgPrh_lEO_-1" value="Comentario" style="swimlane;fontStyle=1;align=center;verticalAlign=top;childLayout=stackLayout;horizontal=1;startSize=26;horizontalStack=0;resizeParent=1;resizeParentMax=0;resizeLast=0;collapsible=1;marginBottom=0;whiteSpace=wrap;html=1;" vertex="1" parent="1">
          <mxGeometry x="-678" y="-688" width="210" height="67" as="geometry" />
        </mxCell>
        <mxCell id="zanm-5azrlLgPrh_lEO_-2" value="+comentario: string" style="text;strokeColor=none;fillColor=none;align=left;verticalAlign=top;spacingLeft=4;spacingRight=4;overflow=hidden;rotatable=0;points=[[0,0.5],[1,0.5]];portConstraint=eastwest;whiteSpace=wrap;html=1;" vertex="1" parent="zanm-5azrlLgPrh_lEO_-1">
          <mxGeometry y="26" width="210" height="26" as="geometry" />
        </mxCell>
        <mxCell id="zanm-5azrlLgPrh_lEO_-3" value="" style="line;strokeWidth=1;fillColor=none;align=left;verticalAlign=middle;spacingTop=-1;spacingLeft=3;spacingRight=3;rotatable=0;labelPosition=right;points=[];portConstraint=eastwest;strokeColor=inherit;" vertex="1" parent="zanm-5azrlLgPrh_lEO_-1">
          <mxGeometry y="52" width="210" height="15" as="geometry" />
        </mxCell>
        <mxCell id="zanm-5azrlLgPrh_lEO_-5" style="edgeStyle=orthogonalEdgeStyle;rounded=0;orthogonalLoop=1;jettySize=auto;html=1;entryX=0.75;entryY=0;entryDx=0;entryDy=0;" edge="1" parent="1" source="E6nLzQcmiTUkTVW1TXlh-48" target="9x2089Uv81hmqCVrcCbn-25">
          <mxGeometry relative="1" as="geometry">
            <Array as="points">
              <mxPoint x="-606" y="-255" />
            </Array>
          </mxGeometry>
        </mxCell>
        <mxCell id="zanm-5azrlLgPrh_lEO_-7" style="edgeStyle=orthogonalEdgeStyle;rounded=0;orthogonalLoop=1;jettySize=auto;html=1;" edge="1" parent="1" source="zanm-5azrlLgPrh_lEO_-2" target="9x2089Uv81hmqCVrcCbn-1">
          <mxGeometry relative="1" as="geometry" />
        </mxCell>
        <mxCell id="E6nLzQcmiTUkTVW1TXlh-55" style="edgeStyle=orthogonalEdgeStyle;rounded=0;orthogonalLoop=1;jettySize=auto;html=1;entryX=0.216;entryY=-0.005;entryDx=0;entryDy=0;entryPerimeter=0;" edge="1" parent="1" source="zanm-5azrlLgPrh_lEO_-2" target="zNAMggwcWa4zuc7megW7-1272">
          <mxGeometry relative="1" as="geometry" />
        </mxCell>
      </root>
    </mxGraphModel>
  </diagram>
</mxfile>
